<?xml version="1.0" encoding="utf-8"?>
<!-- Generator: Adobe Illustrator 28.1.0, SVG Export Plug-In . SVG Version: 6.00 Build 0)  -->
<svg version="1.1" id="Logo" xmlns="http://www.w3.org/2000/svg" xmlns:xlink="http://www.w3.org/1999/xlink" x="0px" y="0px"
	 viewBox="0 0 800 150" style="enable-background:new 0 0 800 150;" xml:space="preserve">
<style type="text/css">
	.st0{fill:#58AAE1;enable-background:new    ;}
	.st1{fill:#FFFFFF;}
</style>
<g>
	<path id="Path_3" class="st0" d="M174.7,60.9c0,2.7-1,5.2-2.9,7.1s-4.5,3-7.2,2.9c-2.6,0-5.2-1-7-2.9c-3.8-3.9-3.8-10.2,0-14.1
		c1.8-1.9,4.3-3,7-2.9c2.7-0.1,5.3,1,7.2,2.9C173.6,55.7,174.7,58.2,174.7,60.9 M174.7,89.1c0,2.7-1,5.2-2.9,7.1s-4.5,3-7.2,2.9
		c-2.6,0-5.2-1-7-2.9c-3.8-3.9-3.8-10.2,0-14.1c1.8-1.9,4.3-3,7-2.9c2.7-0.1,5.3,1,7.2,2.9C173.6,83.9,174.7,86.5,174.7,89.1"/>
	<path id="Path_4" class="st1" d="M38.6,108.2c-2.5,0.1-4.9-0.9-6.6-2.6c-1.8-1.8-2.9-4.3-2.9-6.9V71.6c0.1-4.6,1.1-9.1,3-13.3
		c1.8-4.1,4.4-7.8,7.6-10.9c3.2-3.1,7-5.6,11.2-7.3c4.3-1.8,8.9-2.8,13.6-3c2.6-0.1,5,0.9,6.8,2.8c1.8,1.8,2.9,4.2,3,6.8
		c0.1,2.5-1,4.9-2.8,6.7c-1.9,1.8-4.3,2.8-6.9,2.8c-4.3,0-8.4,1.7-11.5,4.7c-1.5,1.5-2.7,3.3-3.5,5.2c-0.9,2.1-1.3,4.3-1.3,6.5v26.8
		c-0.1,2.4-1.1,4.6-2.9,6.3C43.5,107.3,41.1,108.2,38.6,108.2"/>
	<path id="Path_5" class="st1" d="M111.6,36.9c4.7,0,9.3,1,13.5,2.9c8.5,3.9,15.4,10.7,19.3,19.2c1.9,4.2,3,8.8,2.9,13.4
		c0.1,2.4-1,4.6-2.9,6c-2,1.5-4.6,2.2-7.1,2.1H98.2c2.5,5.1,7.7,8.4,13.4,8.4c1.3,0,2.7-0.1,4-0.4c1-0.3,1.9-0.6,2.8-1
		c0.8-0.4,1.7-0.7,2.5-1c0.9-0.3,1.9-0.5,2.8-0.4c3.8,0.1,7.2,2.4,8.7,5.8c0.7,1.6,1,3.4,0.7,5.2c-0.3,1.9-1.2,3.7-2.6,5.1
		c-2.6,2.1-5.6,3.7-8.8,4.5c-3.4,0.9-6.8,1.3-10.3,1.4c-4.6,0.2-9.3-0.7-13.5-2.6s-8.1-4.5-11.4-7.8s-5.9-7.2-7.8-11.5
		s-2.9-9-2.9-13.7c0-4.6,1-9.2,2.9-13.4s4.5-8.1,7.7-11.4c3.3-3.3,7.1-6,11.3-7.9C102.2,37.9,106.9,36.9,111.6,36.9 M125,64.3
		c-4-7.5-13.3-10.4-20.8-6.5c0,0-0.1,0-0.1,0.1c-2.5,1.5-4.5,3.8-5.8,6.4H125z"/>
	<path id="Path_6" class="st1" d="M218.2,36.9c9.4-0.2,18.4,3.6,25,10.3c1.6,1.8,2.5,4.2,2.3,6.6c-0.1,2.4-1.1,4.7-2.9,6.3
		c-1.8,1.7-4.3,2.6-6.8,2.6c-2.5,0.2-5-0.8-6.8-2.6c-3-2.7-6.9-4.2-10.9-4.1c-2.2,0-4.4,0.5-6.4,1.4s-3.8,2.1-5.3,3.7
		c-1.5,1.5-2.7,3.3-3.6,5.2c-0.9,1.9-1.3,4-1.3,6.2s0.4,4.4,1.3,6.4c0.9,2,2.1,3.8,3.7,5.3c1.5,1.5,3.3,2.7,5.3,3.6s4.2,1.3,6.3,1.2
		c4,0.1,7.9-1.3,10.9-4c3.5-3.7,9.3-3.9,13.1-0.5c0.2,0.1,0.3,0.3,0.5,0.5c0.9,0.8,1.6,1.7,2.1,2.8c0.5,1.1,0.8,2.2,0.8,3.4
		c0,1.2-0.1,2.3-0.5,3.5c-0.4,1.1-1,2.1-1.8,3c-3.2,3.3-7.1,5.9-11.3,7.8c-4.3,1.8-9,2.7-13.7,2.6c-4.8,0-9.5-0.9-13.8-2.8
		c-8.5-3.7-15.3-10.5-19-19c-1.9-4.3-2.9-9-2.9-13.7s1-9.3,2.9-13.5s4.5-8.1,7.8-11.3s7.2-5.9,11.4-7.8
		C208.8,37.9,213.4,36.9,218.2,36.9"/>
	<path id="Path_7" class="st1" d="M288.9,36.8c4.7,0,9.4,0.9,13.7,2.8c4.2,1.8,8.1,4.4,11.3,7.6c3.3,3.3,5.9,7.1,7.7,11.3
		c3.8,8.8,3.8,18.8,0.1,27.7c-1.8,4.2-4.4,8-7.6,11.2c-6.7,6.7-15.7,10.5-25.2,10.4c-4.7,0-9.4-0.9-13.8-2.6
		c-4.2-1.7-8.1-4.2-11.3-7.4c-6.8-6.7-10.5-15.8-10.4-25.4c-0.1-9.3,3.6-18.3,10.2-24.9c3.3-3.2,7.1-5.8,11.3-7.6
		C279.3,38,284,36.9,288.9,36.8 M288.9,56c-2.2,0-4.3,0.4-6.3,1.3c-1.9,0.8-3.7,2-5.2,3.5s-2.8,3.3-3.6,5.2
		c-0.9,2.1-1.3,4.3-1.3,6.5s0.4,4.4,1.3,6.4s2.1,3.8,3.6,5.3s3.3,2.7,5.2,3.6c2,0.9,4.1,1.3,6.3,1.3c2.2,0,4.4-0.4,6.4-1.3
		c2-0.8,3.7-2.1,5.2-3.6s2.7-3.3,3.5-5.3c0.9-2,1.3-4.2,1.3-6.4c-0.1-4.3-1.8-8.4-4.9-11.5C297.4,57.9,293.3,56.1,288.9,56"/>
	<path id="Path_8" class="st1" d="M447,36.5c4.6,0,9.2,0.9,13.5,2.6c4.2,1.6,8,4.1,11.3,7.2c3.3,3.1,5.9,6.8,7.8,11
		c2,4.3,3,9,2.9,13.7v27c0,2.5-0.9,4.9-2.7,6.6c-1.7,1.8-4.2,2.9-6.7,2.9s-5-0.9-6.8-2.6c-1.9-1.6-2.9-4-2.8-6.5V72
		c0-2.2-0.4-4.4-1.2-6.4c-0.8-2-2-3.7-3.5-5.2s-3.3-2.7-5.3-3.5c-2.1-0.9-4.3-1.3-6.5-1.3c-2.1,0-4.2,0.4-6.2,1.3
		c-1.9,0.8-3.6,1.9-5.1,3.3c-1.5,1.4-2.7,3.1-3.5,5c-0.9,1.9-1.3,4-1.3,6.2v26.8c0,2.5-1.1,5-2.9,6.7c-1.8,1.8-4.2,2.8-6.8,2.8
		c-2.5,0-4.9-0.9-6.8-2.6c-1.9-1.6-3-4-2.9-6.5V72c0.1-4.7,1-9.4,2.8-13.8c1.8-4.2,4.3-8.1,7.5-11.3C428.4,40.1,437.5,36.4,447,36.5
		"/>
	<path id="Path_9" class="st0" d="M502,14.9c2.5,0,4.9,1,6.5,2.9c3.6,3.7,3.6,9.7,0,13.4c-1.7,1.8-4.1,2.9-6.5,2.8
		c-2.6,0-5.1-1-7-2.7c-1.9-1.9-2.9-4.6-2.7-7.3c0.1-2.5,1.2-4.8,3-6.5C497.1,15.8,499.5,14.8,502,14.9"/>
	<path id="Path_10" class="st1" d="M502,37.3c2.4,0,4.8,1,6.4,2.8c1.7,1.9,2.7,4.2,2.9,6.8v52c0.1,2.5-0.8,4.8-2.5,6.6
		c-1.8,1.8-4.2,2.9-6.8,2.9c-2.4,0.1-4.7-0.8-6.5-2.4c-1.9-1.7-3-4.1-3.2-6.6V46.3c0.1-2.4,1.3-4.7,3.1-6.3
		C497.2,38.3,499.6,37.4,502,37.3"/>
	<path id="Path_11" class="st1" d="M531.3,14.1c2.6-0.1,5.1,1,6.9,2.9c1.9,1.9,3,4.4,3.1,7.1v11.8h25.3c2.6-0.1,5.2,1,6.9,2.9
		s2.7,4.4,2.6,6.9c0,2.6-1.1,5.1-2.9,6.8c-1.7,1.9-4.1,3-6.6,3h-25.3v16.2c0,2.2,0.4,4.4,1.2,6.4s2,3.8,3.5,5.4s3.2,2.8,5.2,3.7
		c2.1,0.9,4.3,1.3,6.5,1.3c2.2,0.1,4.4-0.3,6.5-1c1.8-0.7,3.4-1.7,4.8-3.1c1.9-1.7,4.3-2.7,6.8-2.7c2.6,0,5.1,1,7,2.9
		c0.9,0.8,1.7,1.9,2.2,3s0.8,2.3,0.8,3.5c0.1,1.2-0.1,2.4-0.5,3.6s-1,2.2-1.9,3.1c-3.3,3.2-7.1,5.8-11.3,7.6
		c-4.2,1.8-8.7,2.7-13.2,2.6c-4.9,0-9.8-0.8-14.4-2.6c-4.4-1.7-8.5-4.1-11.9-7.3c-3.5-3.2-6.2-7.1-8.2-11.5
		c-2.1-4.7-3.1-9.8-3.2-14.9V23.4c-0.1-2.6,1.1-5,3-6.6C526.2,15,528.7,14.1,531.3,14.1"/>
	<path id="Path_12" class="st0" d="M602,14.9c2.5,0,4.9,1,6.5,2.9c3.6,3.7,3.6,9.7,0,13.4c-1.7,1.8-4.1,2.9-6.5,2.8
		c-2.6,0-5.1-1-7-2.7c-1.9-1.9-2.9-4.6-2.7-7.3c0.1-2.5,1.2-4.8,3-6.5S599.5,14.8,602,14.9"/>
	<path id="Path_13" class="st1" d="M602,37.3c2.4,0,4.8,1,6.4,2.8c1.7,1.9,2.7,4.2,2.8,6.8v52c0.1,2.5-0.8,4.8-2.5,6.6
		c-1.8,1.8-4.2,2.9-6.8,2.9c-2.4,0.1-4.7-0.8-6.5-2.4c-1.9-1.7-3-4.1-3.2-6.6V46.3c0.1-2.4,1.3-4.7,3.1-6.3
		C597.2,38.3,599.5,37.4,602,37.3"/>
	<path id="Path_14" class="st1" d="M655.9,36.8c4.7,0,9.4,0.9,13.7,2.8c4.2,1.8,8.1,4.4,11.3,7.6c3.3,3.3,5.9,7.1,7.7,11.3
		c3.8,8.8,3.8,18.8,0.1,27.7c-1.8,4.2-4.4,8-7.6,11.2c-6.7,6.7-15.7,10.5-25.2,10.4c-4.7,0-9.4-0.9-13.8-2.6
		c-4.2-1.7-8.1-4.2-11.3-7.4c-6.8-6.7-10.5-15.8-10.4-25.4c-0.1-9.3,3.6-18.3,10.2-24.9c3.3-3.2,7.1-5.8,11.3-7.6
		C646.3,38,651.1,36.9,655.9,36.8 M655.9,56c-2.2,0-4.3,0.4-6.3,1.3c-1.9,0.8-3.7,2-5.2,3.5s-2.8,3.3-3.6,5.2
		c-0.9,2.1-1.3,4.3-1.3,6.5s0.4,4.4,1.3,6.4c0.9,2,2.1,3.8,3.6,5.3s3.3,2.7,5.2,3.6c2,0.9,4.1,1.3,6.3,1.3s4.4-0.4,6.4-1.3
		c2-0.8,3.7-2.1,5.2-3.6s2.7-3.3,3.5-5.3c0.9-2,1.3-4.2,1.3-6.4c-0.1-4.3-1.8-8.4-4.9-11.5C664.5,57.9,660.3,56.1,655.9,56"/>
	<path id="Path_15" class="st1" d="M735.4,36.5c4.6,0,9.2,0.9,13.5,2.6c4.2,1.6,8,4.1,11.3,7.2c3.3,3.1,5.9,6.8,7.8,11
		c2,4.3,3,9,2.9,13.7v27c0,2.5-0.9,4.9-2.7,6.6c-1.7,1.8-4.2,2.9-6.7,2.9s-5-0.9-6.8-2.6c-1.9-1.6-2.9-4-2.9-6.5V72
		c0-2.2-0.4-4.4-1.2-6.4s-2-3.7-3.5-5.2s-3.3-2.7-5.3-3.5c-2.1-0.9-4.3-1.3-6.5-1.3c-2.1,0-4.2,0.4-6.2,1.3
		c-1.9,0.8-3.6,1.9-5.1,3.3c-1.5,1.4-2.7,3.1-3.5,5c-0.9,1.9-1.3,4-1.3,6.2v26.8c0,2.5-1.1,5-2.9,6.7c-1.8,1.8-4.2,2.8-6.8,2.8
		c-2.5,0-4.9-0.9-6.8-2.6c-1.9-1.6-3-4-2.9-6.5V72c0.1-4.7,1-9.4,2.8-13.8c1.8-4.2,4.3-8.1,7.5-11.3
		C716.8,40.1,725.9,36.4,735.4,36.5"/>
	<path id="Path_16" class="st1" d="M403.1,72.5c0-4.8-0.9-9.6-2.9-14c-1.8-4.2-4.5-8.1-7.7-11.3c-3.3-3.2-7.1-5.8-11.3-7.6
		c-4.3-1.9-9-2.8-13.7-2.8c-4.8,0.2-9.6,1.2-14,3.2c-4.2,1.8-8.1,4.4-11.3,7.6c-13.8,13.7-13.9,36.1-0.2,49.9
		c3.3,3.4,7.3,6,11.7,7.8c4.4,1.8,9.1,2.7,13.8,2.6c4.8,0,9.6-0.9,14-2.8c0.9-0.4,1.7-0.8,2.5-1.2v23c0.2,2.5,1.4,4.9,3.2,6.6
		c1.8,1.6,4.1,2.4,6.5,2.4c2.5-0.1,5-1.1,6.8-2.9c1.7-1.8,2.6-4.2,2.5-6.6V75.7C403,74.6,403.1,73.6,403.1,72.5 M379.1,84.2
		c-1.5,1.5-3.3,2.8-5.2,3.6c-2,0.9-4.2,1.3-6.4,1.3c-2.2,0-4.3-0.4-6.3-1.3c-1.9-0.9-3.7-2.1-5.2-3.6s-2.7-3.3-3.6-5.3
		s-1.3-4.2-1.3-6.4c0-2.2,0.4-4.5,1.3-6.5c0.8-2,2.1-3.7,3.6-5.2s3.3-2.6,5.2-3.5c2-0.8,4.2-1.3,6.3-1.3c4.4,0.1,8.6,1.9,11.6,5
		s4.7,7.2,4.9,11.5c0,2.2-0.4,4.4-1.3,6.4C381.8,80.8,380.6,82.6,379.1,84.2"/>
</g>
</svg>
